<svg width="68" height="68" viewBox="0 0 68 68" fill="none" xmlns="http://www.w3.org/2000/svg">
<ellipse cx="40" cy="62.3012" rx="28" ry="5.69856" fill="#EDEFF5"/>
<path d="M48.9802 53.9304L44.1948 56.5687L44.545 55.1331L48.9802 53.9304Z" fill="#57617F"/>
<path d="M24.7419 1.51257L20.3066 3.95689L23.6136 5.62523L25.7535 3.10332L24.7419 1.51257Z" fill="#F97A7A"/>
<path d="M27.4653 40.1958C29.7997 46.2484 33.0678 51.9518 37.1918 57.1121C48.9802 57.1121 58.979 48.4599 60.652 36.8203L62.5973 23.2796L58.162 25.7627L27.4653 40.1958Z" fill="#57617F"/>
<path d="M24.7418 1.51327L23.8081 8.18665C22.2519 19.0891 23.5747 30.1079 27.4652 40.2344L58.0841 25.7625L62.5193 23.2793L45.323 0.00012207L24.7418 1.51327Z" fill="#F97A7A"/>
<path d="M28.7495 51.9907C21.3963 42.7954 18.1282 30.8066 19.8011 19.167L21.7464 5.50983L40.1099 4.19067L56.3726 26.1895L54.544 39.0707C53.0656 49.5851 44.0783 57.5777 33.496 57.9657L28.7495 51.9907Z" fill="#FDFDFD"/>
<path d="M39.2926 5.85852L54.6604 26.577L52.9097 38.7986C52.2094 43.6484 49.7972 48.1103 46.1012 51.2918C42.7942 54.1629 38.6312 55.9088 34.2349 56.2192L30.0331 50.9426C22.9522 42.0965 19.8009 30.5733 21.396 19.3605L23.1468 7.02248L39.2926 5.85852ZM40.8878 2.48303L20.3066 3.99618L18.1668 18.9337C16.4161 31.0777 19.8009 43.4157 27.4653 53.0377L32.7176 59.5947C44.506 59.5947 54.5048 50.9426 56.1777 39.303L58.123 25.7622L40.8878 2.48303Z" fill="#FFB75E"/>
<path d="M7.6948 58.6054C11.9445 58.6054 15.3896 56.4191 15.3896 53.7222C15.3896 51.0252 11.9445 48.839 7.6948 48.839C3.44508 48.839 0 51.0252 0 53.7222C0 56.4191 3.44508 58.6054 7.6948 58.6054Z" fill="#FFB75E"/>
<path d="M15.3896 50.6538H0V53.7232H15.3896V50.6538Z" fill="#FFB75E"/>
<path d="M7.6948 55.5362C11.9445 55.5362 15.3896 53.3499 15.3896 50.653C15.3896 47.9561 11.9445 45.7698 7.6948 45.7698C3.44508 45.7698 0 47.9561 0 50.653C0 53.3499 3.44508 55.5362 7.6948 55.5362Z" fill="#FFD385"/>
<path d="M7.6948 53.7229C11.9445 53.7229 15.3896 51.5366 15.3896 48.8397C15.3896 46.1427 11.9445 43.9565 7.6948 43.9565C3.44508 43.9565 0 46.1427 0 48.8397C0 51.5366 3.44508 53.7229 7.6948 53.7229Z" fill="#FFB75E"/>
<path d="M15.3896 45.7698H0V48.8393H15.3896V45.7698Z" fill="#FFB75E"/>
<path d="M7.6948 50.6537C11.9445 50.6537 15.3896 48.4674 15.3896 45.7705C15.3896 43.0736 11.9445 40.8873 7.6948 40.8873C3.44508 40.8873 0 43.0736 0 45.7705C0 48.4674 3.44508 50.6537 7.6948 50.6537Z" fill="#FFD385"/>
<path d="M7.6948 48.6329C11.9445 48.6329 15.3896 46.4466 15.3896 43.7497C15.3896 41.0528 11.9445 38.8665 7.6948 38.8665C3.44508 38.8665 0 41.0528 0 43.7497C0 46.4466 3.44508 48.6329 7.6948 48.6329Z" fill="#FFB75E"/>
<path d="M15.3896 40.6813H0V43.7508H15.3896V40.6813Z" fill="#FFB75E"/>
<path d="M7.6948 45.5637C11.9445 45.5637 15.3896 43.3774 15.3896 40.6805C15.3896 37.9836 11.9445 35.7973 7.6948 35.7973C3.44508 35.7973 0 37.9836 0 40.6805C0 43.3774 3.44508 45.5637 7.6948 45.5637Z" fill="#FFD385"/>
<path d="M7.6948 43.7504C11.9445 43.7504 15.3896 41.5641 15.3896 38.8672C15.3896 36.1702 11.9445 33.9839 7.6948 33.9839C3.44508 33.9839 0 36.1702 0 38.8672C0 41.5641 3.44508 43.7504 7.6948 43.7504Z" fill="#FFB75E"/>
<path d="M15.3896 35.7973H0V38.8667H15.3896V35.7973Z" fill="#FFB75E"/>
<path d="M7.6948 40.6811C11.9445 40.6811 15.3896 38.4948 15.3896 35.7979C15.3896 33.101 11.9445 30.9147 7.6948 30.9147C3.44508 30.9147 0 33.101 0 35.7979C0 38.4948 3.44508 40.6811 7.6948 40.6811Z" fill="#FFD385"/>
<path d="M32.3256 33.3159C32.2107 33.3159 32.1106 33.3942 32.0829 33.5057C32.0692 33.5611 32.0751 33.6176 32.0969 33.6671V35.7519C32.0969 35.8444 32.148 35.9293 32.2296 35.9727L42.492 41.4278C42.5695 41.469 42.6629 41.4666 42.7381 41.4214C42.8134 41.3762 42.8594 41.2949 42.8594 41.2071V39.0211C42.8594 38.9286 42.8083 38.8437 42.7267 38.8003L39.5241 37.0984V22.3208C39.5241 22.2281 39.4728 22.143 39.3909 22.0997L36.7825 20.7212C36.728 20.6924 36.6648 20.6847 36.605 20.6997L30.9393 22.1176C30.8637 22.1365 30.8013 22.1896 30.7704 22.2611C30.7396 22.3327 30.7438 22.4145 30.7819 22.4824L31.7825 24.2669C31.8668 24.4432 32.0009 24.5871 32.1434 24.7371C32.2886 24.8929 32.4635 25.0327 32.67 25.1277C32.6879 25.136 32.7075 25.1454 32.7284 25.1555C32.8251 25.202 32.95 25.262 33.0713 25.2844L33.0713 25.2845L33.0787 25.2856C33.2294 25.3087 33.3649 25.31 33.504 25.2844L33.5041 25.2847L33.5161 25.2818L35.8646 24.728C35.85 25.0245 35.8385 25.3168 35.8385 25.6096V35.1401L32.521 33.3864C32.476 33.3428 32.4146 33.3159 32.3469 33.3159H32.3256Z" fill="#EF3340" stroke="#EF3340" stroke-width="0.5" stroke-linecap="round" stroke-linejoin="round"/>
</svg>
